<mxfile host="app.diagrams.net" modified="2021-10-21T02:08:38.434Z" agent="5.0 (Windows NT 10.0; Win64; x64) AppleWebKit/537.36 (KHTML, like Gecko) Chrome/94.0.4606.81 Safari/537.36" etag="7hLC1ejVuY14QWsn0UNX" version="15.5.4" type="github">
  <diagram id="URo437QUK-30ha1b3v_Z" name="Page-1">
    <mxGraphModel dx="1447" dy="767" grid="1" gridSize="10" guides="1" tooltips="1" connect="1" arrows="1" fold="1" page="1" pageScale="1" pageWidth="827" pageHeight="1169" math="0" shadow="0">
      <root>
        <mxCell id="0" />
        <mxCell id="1" parent="0" />
        <mxCell id="vkNyDaB43m4bc4SYDss3-11" value="Users" style="swimlane;fontStyle=0;childLayout=stackLayout;horizontal=1;startSize=26;horizontalStack=0;resizeParent=1;resizeParentMax=0;resizeLast=0;collapsible=1;marginBottom=0;fillColor=#a20025;strokeColor=#6F0000;fontColor=#ffffff;" parent="1" vertex="1">
          <mxGeometry x="750" y="360" width="140" height="260" as="geometry" />
        </mxCell>
        <mxCell id="vkNyDaB43m4bc4SYDss3-12" value="id" style="text;strokeColor=none;fillColor=none;align=left;verticalAlign=top;spacingLeft=4;spacingRight=4;overflow=hidden;rotatable=0;points=[[0,0.5],[1,0.5]];portConstraint=eastwest;" parent="vkNyDaB43m4bc4SYDss3-11" vertex="1">
          <mxGeometry y="26" width="140" height="26" as="geometry" />
        </mxCell>
        <mxCell id="vkNyDaB43m4bc4SYDss3-13" value="email" style="text;strokeColor=none;fillColor=none;align=left;verticalAlign=top;spacingLeft=4;spacingRight=4;overflow=hidden;rotatable=0;points=[[0,0.5],[1,0.5]];portConstraint=eastwest;" parent="vkNyDaB43m4bc4SYDss3-11" vertex="1">
          <mxGeometry y="52" width="140" height="26" as="geometry" />
        </mxCell>
        <mxCell id="vkNyDaB43m4bc4SYDss3-14" value="name" style="text;strokeColor=none;fillColor=none;align=left;verticalAlign=top;spacingLeft=4;spacingRight=4;overflow=hidden;rotatable=0;points=[[0,0.5],[1,0.5]];portConstraint=eastwest;" parent="vkNyDaB43m4bc4SYDss3-11" vertex="1">
          <mxGeometry y="78" width="140" height="26" as="geometry" />
        </mxCell>
        <mxCell id="vkNyDaB43m4bc4SYDss3-16" value="password" style="text;strokeColor=none;fillColor=none;align=left;verticalAlign=top;spacingLeft=4;spacingRight=4;overflow=hidden;rotatable=0;points=[[0,0.5],[1,0.5]];portConstraint=eastwest;" parent="vkNyDaB43m4bc4SYDss3-11" vertex="1">
          <mxGeometry y="104" width="140" height="26" as="geometry" />
        </mxCell>
        <mxCell id="vkNyDaB43m4bc4SYDss3-17" value="phone" style="text;strokeColor=none;fillColor=none;align=left;verticalAlign=top;spacingLeft=4;spacingRight=4;overflow=hidden;rotatable=0;points=[[0,0.5],[1,0.5]];portConstraint=eastwest;" parent="vkNyDaB43m4bc4SYDss3-11" vertex="1">
          <mxGeometry y="130" width="140" height="26" as="geometry" />
        </mxCell>
        <mxCell id="vkNyDaB43m4bc4SYDss3-15" value="address" style="text;strokeColor=none;fillColor=none;align=left;verticalAlign=top;spacingLeft=4;spacingRight=4;overflow=hidden;rotatable=0;points=[[0,0.5],[1,0.5]];portConstraint=eastwest;" parent="vkNyDaB43m4bc4SYDss3-11" vertex="1">
          <mxGeometry y="156" width="140" height="26" as="geometry" />
        </mxCell>
        <mxCell id="vkNyDaB43m4bc4SYDss3-18" value="level" style="text;strokeColor=none;fillColor=none;align=left;verticalAlign=top;spacingLeft=4;spacingRight=4;overflow=hidden;rotatable=0;points=[[0,0.5],[1,0.5]];portConstraint=eastwest;" parent="vkNyDaB43m4bc4SYDss3-11" vertex="1">
          <mxGeometry y="182" width="140" height="26" as="geometry" />
        </mxCell>
        <mxCell id="vkNyDaB43m4bc4SYDss3-19" value="created_time" style="text;strokeColor=none;fillColor=none;align=left;verticalAlign=top;spacingLeft=4;spacingRight=4;overflow=hidden;rotatable=0;points=[[0,0.5],[1,0.5]];portConstraint=eastwest;" parent="vkNyDaB43m4bc4SYDss3-11" vertex="1">
          <mxGeometry y="208" width="140" height="26" as="geometry" />
        </mxCell>
        <mxCell id="vkNyDaB43m4bc4SYDss3-20" value="updated_time" style="text;strokeColor=none;fillColor=none;align=left;verticalAlign=top;spacingLeft=4;spacingRight=4;overflow=hidden;rotatable=0;points=[[0,0.5],[1,0.5]];portConstraint=eastwest;" parent="vkNyDaB43m4bc4SYDss3-11" vertex="1">
          <mxGeometry y="234" width="140" height="26" as="geometry" />
        </mxCell>
        <mxCell id="vkNyDaB43m4bc4SYDss3-21" value="Toeic_user" style="swimlane;fontStyle=0;childLayout=stackLayout;horizontal=1;startSize=26;fillColor=#76608a;horizontalStack=0;resizeParent=1;resizeParentMax=0;resizeLast=0;collapsible=1;marginBottom=0;fontColor=#ffffff;strokeColor=#432D57;" parent="1" vertex="1">
          <mxGeometry x="960" y="130" width="140" height="182" as="geometry" />
        </mxCell>
        <mxCell id="vkNyDaB43m4bc4SYDss3-22" value="id" style="text;strokeColor=none;fillColor=none;align=left;verticalAlign=top;spacingLeft=4;spacingRight=4;overflow=hidden;rotatable=0;points=[[0,0.5],[1,0.5]];portConstraint=eastwest;" parent="vkNyDaB43m4bc4SYDss3-21" vertex="1">
          <mxGeometry y="26" width="140" height="26" as="geometry" />
        </mxCell>
        <mxCell id="vkNyDaB43m4bc4SYDss3-23" value="user_id" style="text;strokeColor=none;fillColor=none;align=left;verticalAlign=top;spacingLeft=4;spacingRight=4;overflow=hidden;rotatable=0;points=[[0,0.5],[1,0.5]];portConstraint=eastwest;" parent="vkNyDaB43m4bc4SYDss3-21" vertex="1">
          <mxGeometry y="52" width="140" height="26" as="geometry" />
        </mxCell>
        <mxCell id="vkNyDaB43m4bc4SYDss3-26" value="toeic_id" style="text;strokeColor=none;fillColor=none;align=left;verticalAlign=top;spacingLeft=4;spacingRight=4;overflow=hidden;rotatable=0;points=[[0,0.5],[1,0.5]];portConstraint=eastwest;" parent="vkNyDaB43m4bc4SYDss3-21" vertex="1">
          <mxGeometry y="78" width="140" height="26" as="geometry" />
        </mxCell>
        <mxCell id="uOX_rvYjbaf5CbR3i-7Y-25" value="score" style="text;strokeColor=none;fillColor=none;align=left;verticalAlign=top;spacingLeft=4;spacingRight=4;overflow=hidden;rotatable=0;points=[[0,0.5],[1,0.5]];portConstraint=eastwest;" vertex="1" parent="vkNyDaB43m4bc4SYDss3-21">
          <mxGeometry y="104" width="140" height="26" as="geometry" />
        </mxCell>
        <mxCell id="vkNyDaB43m4bc4SYDss3-25" value="created_time" style="text;strokeColor=none;fillColor=none;align=left;verticalAlign=top;spacingLeft=4;spacingRight=4;overflow=hidden;rotatable=0;points=[[0,0.5],[1,0.5]];portConstraint=eastwest;" parent="vkNyDaB43m4bc4SYDss3-21" vertex="1">
          <mxGeometry y="130" width="140" height="26" as="geometry" />
        </mxCell>
        <mxCell id="vkNyDaB43m4bc4SYDss3-24" value="updated_time" style="text;strokeColor=none;fillColor=none;align=left;verticalAlign=top;spacingLeft=4;spacingRight=4;overflow=hidden;rotatable=0;points=[[0,0.5],[1,0.5]];portConstraint=eastwest;" parent="vkNyDaB43m4bc4SYDss3-21" vertex="1">
          <mxGeometry y="156" width="140" height="26" as="geometry" />
        </mxCell>
        <mxCell id="vkNyDaB43m4bc4SYDss3-27" value="Toeic" style="swimlane;fontStyle=0;childLayout=stackLayout;horizontal=1;startSize=26;fillColor=#76608a;horizontalStack=0;resizeParent=1;resizeParentMax=0;resizeLast=0;collapsible=1;marginBottom=0;fontColor=#ffffff;strokeColor=#432D57;" parent="1" vertex="1">
          <mxGeometry x="1180" y="130" width="140" height="260" as="geometry" />
        </mxCell>
        <mxCell id="vkNyDaB43m4bc4SYDss3-28" value="id" style="text;strokeColor=none;fillColor=none;align=left;verticalAlign=top;spacingLeft=4;spacingRight=4;overflow=hidden;rotatable=0;points=[[0,0.5],[1,0.5]];portConstraint=eastwest;" parent="vkNyDaB43m4bc4SYDss3-27" vertex="1">
          <mxGeometry y="26" width="140" height="26" as="geometry" />
        </mxCell>
        <mxCell id="vkNyDaB43m4bc4SYDss3-29" value="name_test" style="text;strokeColor=none;fillColor=none;align=left;verticalAlign=top;spacingLeft=4;spacingRight=4;overflow=hidden;rotatable=0;points=[[0,0.5],[1,0.5]];portConstraint=eastwest;" parent="vkNyDaB43m4bc4SYDss3-27" vertex="1">
          <mxGeometry y="52" width="140" height="26" as="geometry" />
        </mxCell>
        <mxCell id="vkNyDaB43m4bc4SYDss3-30" value="description" style="text;strokeColor=none;fillColor=none;align=left;verticalAlign=top;spacingLeft=4;spacingRight=4;overflow=hidden;rotatable=0;points=[[0,0.5],[1,0.5]];portConstraint=eastwest;" parent="vkNyDaB43m4bc4SYDss3-27" vertex="1">
          <mxGeometry y="78" width="140" height="26" as="geometry" />
        </mxCell>
        <mxCell id="vkNyDaB43m4bc4SYDss3-33" value="level" style="text;strokeColor=none;fillColor=none;align=left;verticalAlign=top;spacingLeft=4;spacingRight=4;overflow=hidden;rotatable=0;points=[[0,0.5],[1,0.5]];portConstraint=eastwest;" parent="vkNyDaB43m4bc4SYDss3-27" vertex="1">
          <mxGeometry y="104" width="140" height="26" as="geometry" />
        </mxCell>
        <mxCell id="vkNyDaB43m4bc4SYDss3-35" value="view" style="text;strokeColor=none;fillColor=none;align=left;verticalAlign=top;spacingLeft=4;spacingRight=4;overflow=hidden;rotatable=0;points=[[0,0.5],[1,0.5]];portConstraint=eastwest;" parent="vkNyDaB43m4bc4SYDss3-27" vertex="1">
          <mxGeometry y="130" width="140" height="26" as="geometry" />
        </mxCell>
        <mxCell id="vkNyDaB43m4bc4SYDss3-207" value="part" style="text;strokeColor=none;fillColor=none;align=left;verticalAlign=top;spacingLeft=4;spacingRight=4;overflow=hidden;rotatable=0;points=[[0,0.5],[1,0.5]];portConstraint=eastwest;" parent="vkNyDaB43m4bc4SYDss3-27" vertex="1">
          <mxGeometry y="156" width="140" height="26" as="geometry" />
        </mxCell>
        <mxCell id="vkNyDaB43m4bc4SYDss3-32" value="test" style="text;strokeColor=none;fillColor=none;align=left;verticalAlign=top;spacingLeft=4;spacingRight=4;overflow=hidden;rotatable=0;points=[[0,0.5],[1,0.5]];portConstraint=eastwest;" parent="vkNyDaB43m4bc4SYDss3-27" vertex="1">
          <mxGeometry y="182" width="140" height="26" as="geometry" />
        </mxCell>
        <mxCell id="vkNyDaB43m4bc4SYDss3-31" value="created_time" style="text;strokeColor=none;fillColor=none;align=left;verticalAlign=top;spacingLeft=4;spacingRight=4;overflow=hidden;rotatable=0;points=[[0,0.5],[1,0.5]];portConstraint=eastwest;" parent="vkNyDaB43m4bc4SYDss3-27" vertex="1">
          <mxGeometry y="208" width="140" height="26" as="geometry" />
        </mxCell>
        <mxCell id="vkNyDaB43m4bc4SYDss3-36" value="updated_time" style="text;strokeColor=none;fillColor=none;align=left;verticalAlign=top;spacingLeft=4;spacingRight=4;overflow=hidden;rotatable=0;points=[[0,0.5],[1,0.5]];portConstraint=eastwest;" parent="vkNyDaB43m4bc4SYDss3-27" vertex="1">
          <mxGeometry y="234" width="140" height="26" as="geometry" />
        </mxCell>
        <mxCell id="vkNyDaB43m4bc4SYDss3-43" value="Part" style="swimlane;fontStyle=0;childLayout=stackLayout;horizontal=1;startSize=26;fillColor=#e1d5e7;horizontalStack=0;resizeParent=1;resizeParentMax=0;resizeLast=0;collapsible=1;marginBottom=0;strokeColor=#9673a6;" parent="1" vertex="1">
          <mxGeometry x="1180" y="474" width="140" height="342" as="geometry" />
        </mxCell>
        <mxCell id="vkNyDaB43m4bc4SYDss3-44" value="id" style="text;strokeColor=none;fillColor=none;align=left;verticalAlign=top;spacingLeft=4;spacingRight=4;overflow=hidden;rotatable=0;points=[[0,0.5],[1,0.5]];portConstraint=eastwest;" parent="vkNyDaB43m4bc4SYDss3-43" vertex="1">
          <mxGeometry y="26" width="140" height="26" as="geometry" />
        </mxCell>
        <mxCell id="vkNyDaB43m4bc4SYDss3-47" value="toeic_id" style="text;strokeColor=none;fillColor=none;align=left;verticalAlign=top;spacingLeft=4;spacingRight=4;overflow=hidden;rotatable=0;points=[[0,0.5],[1,0.5]];portConstraint=eastwest;" parent="vkNyDaB43m4bc4SYDss3-43" vertex="1">
          <mxGeometry y="52" width="140" height="26" as="geometry" />
        </mxCell>
        <mxCell id="uOX_rvYjbaf5CbR3i-7Y-20" value="part" style="text;strokeColor=none;fillColor=none;align=left;verticalAlign=top;spacingLeft=4;spacingRight=4;overflow=hidden;rotatable=0;points=[[0,0.5],[1,0.5]];portConstraint=eastwest;" vertex="1" parent="vkNyDaB43m4bc4SYDss3-43">
          <mxGeometry y="78" width="140" height="26" as="geometry" />
        </mxCell>
        <mxCell id="uOX_rvYjbaf5CbR3i-7Y-21" value="description" style="text;strokeColor=none;fillColor=none;align=left;verticalAlign=top;spacingLeft=4;spacingRight=4;overflow=hidden;rotatable=0;points=[[0,0.5],[1,0.5]];portConstraint=eastwest;" vertex="1" parent="vkNyDaB43m4bc4SYDss3-43">
          <mxGeometry y="104" width="140" height="26" as="geometry" />
        </mxCell>
        <mxCell id="vkNyDaB43m4bc4SYDss3-46" value="example" style="text;strokeColor=none;fillColor=none;align=left;verticalAlign=top;spacingLeft=4;spacingRight=4;overflow=hidden;rotatable=0;points=[[0,0.5],[1,0.5]];portConstraint=eastwest;" parent="vkNyDaB43m4bc4SYDss3-43" vertex="1">
          <mxGeometry y="130" width="140" height="26" as="geometry" />
        </mxCell>
        <mxCell id="vkNyDaB43m4bc4SYDss3-45" value="file_listening" style="text;strokeColor=none;fillColor=none;align=left;verticalAlign=top;spacingLeft=4;spacingRight=4;overflow=hidden;rotatable=0;points=[[0,0.5],[1,0.5]];portConstraint=eastwest;" parent="vkNyDaB43m4bc4SYDss3-43" vertex="1">
          <mxGeometry y="156" width="140" height="26" as="geometry" />
        </mxCell>
        <mxCell id="vkNyDaB43m4bc4SYDss3-52" value="question" style="text;strokeColor=none;fillColor=none;align=left;verticalAlign=top;spacingLeft=4;spacingRight=4;overflow=hidden;rotatable=0;points=[[0,0.5],[1,0.5]];portConstraint=eastwest;" parent="vkNyDaB43m4bc4SYDss3-43" vertex="1">
          <mxGeometry y="182" width="140" height="28" as="geometry" />
        </mxCell>
        <mxCell id="vkNyDaB43m4bc4SYDss3-50" value="img" style="text;strokeColor=none;fillColor=none;align=left;verticalAlign=top;spacingLeft=4;spacingRight=4;overflow=hidden;rotatable=0;points=[[0,0.5],[1,0.5]];portConstraint=eastwest;" parent="vkNyDaB43m4bc4SYDss3-43" vertex="1">
          <mxGeometry y="210" width="140" height="26" as="geometry" />
        </mxCell>
        <mxCell id="vkNyDaB43m4bc4SYDss3-118" value="paragraph" style="text;strokeColor=none;fillColor=none;align=left;verticalAlign=top;spacingLeft=4;spacingRight=4;overflow=hidden;rotatable=0;points=[[0,0.5],[1,0.5]];portConstraint=eastwest;" parent="vkNyDaB43m4bc4SYDss3-43" vertex="1">
          <mxGeometry y="236" width="140" height="26" as="geometry" />
        </mxCell>
        <mxCell id="vkNyDaB43m4bc4SYDss3-51" value="answer" style="text;strokeColor=none;fillColor=none;align=left;verticalAlign=top;spacingLeft=4;spacingRight=4;overflow=hidden;rotatable=0;points=[[0,0.5],[1,0.5]];portConstraint=eastwest;" parent="vkNyDaB43m4bc4SYDss3-43" vertex="1">
          <mxGeometry y="262" width="140" height="28" as="geometry" />
        </mxCell>
        <mxCell id="uOX_rvYjbaf5CbR3i-7Y-23" value="created_time" style="text;strokeColor=none;fillColor=none;align=left;verticalAlign=top;spacingLeft=4;spacingRight=4;overflow=hidden;rotatable=0;points=[[0,0.5],[1,0.5]];portConstraint=eastwest;" vertex="1" parent="vkNyDaB43m4bc4SYDss3-43">
          <mxGeometry y="290" width="140" height="26" as="geometry" />
        </mxCell>
        <mxCell id="uOX_rvYjbaf5CbR3i-7Y-24" value="updated_time" style="text;strokeColor=none;fillColor=none;align=left;verticalAlign=top;spacingLeft=4;spacingRight=4;overflow=hidden;rotatable=0;points=[[0,0.5],[1,0.5]];portConstraint=eastwest;" vertex="1" parent="vkNyDaB43m4bc4SYDss3-43">
          <mxGeometry y="316" width="140" height="26" as="geometry" />
        </mxCell>
        <mxCell id="vkNyDaB43m4bc4SYDss3-126" value="Toeic_transcript" style="swimlane;fontStyle=0;childLayout=stackLayout;horizontal=1;startSize=26;fillColor=#e1d5e7;horizontalStack=0;resizeParent=1;resizeParentMax=0;resizeLast=0;collapsible=1;marginBottom=0;strokeColor=#9673a6;" parent="1" vertex="1">
          <mxGeometry x="960" y="360" width="140" height="156" as="geometry" />
        </mxCell>
        <mxCell id="vkNyDaB43m4bc4SYDss3-127" value="id" style="text;strokeColor=none;fillColor=none;align=left;verticalAlign=top;spacingLeft=4;spacingRight=4;overflow=hidden;rotatable=0;points=[[0,0.5],[1,0.5]];portConstraint=eastwest;" parent="vkNyDaB43m4bc4SYDss3-126" vertex="1">
          <mxGeometry y="26" width="140" height="26" as="geometry" />
        </mxCell>
        <mxCell id="vkNyDaB43m4bc4SYDss3-128" value="reading" style="text;strokeColor=none;fillColor=none;align=left;verticalAlign=top;spacingLeft=4;spacingRight=4;overflow=hidden;rotatable=0;points=[[0,0.5],[1,0.5]];portConstraint=eastwest;" parent="vkNyDaB43m4bc4SYDss3-126" vertex="1">
          <mxGeometry y="52" width="140" height="26" as="geometry" />
        </mxCell>
        <mxCell id="vkNyDaB43m4bc4SYDss3-130" value="listening" style="text;strokeColor=none;fillColor=none;align=left;verticalAlign=top;spacingLeft=4;spacingRight=4;overflow=hidden;rotatable=0;points=[[0,0.5],[1,0.5]];portConstraint=eastwest;" parent="vkNyDaB43m4bc4SYDss3-126" vertex="1">
          <mxGeometry y="78" width="140" height="26" as="geometry" />
        </mxCell>
        <mxCell id="vkNyDaB43m4bc4SYDss3-131" value="created_time" style="text;strokeColor=none;fillColor=none;align=left;verticalAlign=top;spacingLeft=4;spacingRight=4;overflow=hidden;rotatable=0;points=[[0,0.5],[1,0.5]];portConstraint=eastwest;" parent="vkNyDaB43m4bc4SYDss3-126" vertex="1">
          <mxGeometry y="104" width="140" height="26" as="geometry" />
        </mxCell>
        <mxCell id="vkNyDaB43m4bc4SYDss3-129" value="updated_time" style="text;strokeColor=none;fillColor=none;align=left;verticalAlign=top;spacingLeft=4;spacingRight=4;overflow=hidden;rotatable=0;points=[[0,0.5],[1,0.5]];portConstraint=eastwest;" parent="vkNyDaB43m4bc4SYDss3-126" vertex="1">
          <mxGeometry y="130" width="140" height="26" as="geometry" />
        </mxCell>
        <mxCell id="vkNyDaB43m4bc4SYDss3-135" value="" style="endArrow=open;html=1;endSize=12;startArrow=diamondThin;startSize=14;startFill=0;edgeStyle=orthogonalEdgeStyle;rounded=0;exitX=0.75;exitY=0;exitDx=0;exitDy=0;entryX=-0.004;entryY=0.089;entryDx=0;entryDy=0;entryPerimeter=0;" parent="1" source="vkNyDaB43m4bc4SYDss3-11" target="vkNyDaB43m4bc4SYDss3-21" edge="1">
          <mxGeometry relative="1" as="geometry">
            <mxPoint x="843" y="776" as="sourcePoint" />
            <mxPoint x="1003" y="776" as="targetPoint" />
          </mxGeometry>
        </mxCell>
        <mxCell id="vkNyDaB43m4bc4SYDss3-136" value="0..n" style="edgeLabel;resizable=0;html=1;align=left;verticalAlign=top;labelBackgroundColor=none;" parent="vkNyDaB43m4bc4SYDss3-135" connectable="0" vertex="1">
          <mxGeometry x="-1" relative="1" as="geometry">
            <mxPoint x="-26" y="-21" as="offset" />
          </mxGeometry>
        </mxCell>
        <mxCell id="vkNyDaB43m4bc4SYDss3-137" value="1" style="edgeLabel;resizable=0;html=1;align=right;verticalAlign=top;labelBackgroundColor=none;" parent="vkNyDaB43m4bc4SYDss3-135" connectable="0" vertex="1">
          <mxGeometry x="1" relative="1" as="geometry">
            <mxPoint x="-5" y="-2" as="offset" />
          </mxGeometry>
        </mxCell>
        <mxCell id="vkNyDaB43m4bc4SYDss3-138" value="" style="endArrow=open;html=1;endSize=12;startArrow=diamondThin;startSize=14;startFill=0;edgeStyle=orthogonalEdgeStyle;rounded=0;entryX=0.994;entryY=0.08;entryDx=0;entryDy=0;entryPerimeter=0;exitX=-0.009;exitY=0.057;exitDx=0;exitDy=0;exitPerimeter=0;" parent="1" target="vkNyDaB43m4bc4SYDss3-21" edge="1" source="vkNyDaB43m4bc4SYDss3-27">
          <mxGeometry relative="1" as="geometry">
            <mxPoint x="1180" y="506" as="sourcePoint" />
            <mxPoint x="1153" y="536" as="targetPoint" />
          </mxGeometry>
        </mxCell>
        <mxCell id="vkNyDaB43m4bc4SYDss3-139" value="0..n" style="edgeLabel;resizable=0;html=1;align=left;verticalAlign=top;labelBackgroundColor=none;" parent="vkNyDaB43m4bc4SYDss3-138" connectable="0" vertex="1">
          <mxGeometry x="-1" relative="1" as="geometry">
            <mxPoint x="-21" y="-23" as="offset" />
          </mxGeometry>
        </mxCell>
        <mxCell id="vkNyDaB43m4bc4SYDss3-140" value="1" style="edgeLabel;resizable=0;html=1;align=right;verticalAlign=top;labelBackgroundColor=none;" parent="vkNyDaB43m4bc4SYDss3-138" connectable="0" vertex="1">
          <mxGeometry x="1" relative="1" as="geometry">
            <mxPoint x="10" y="-22" as="offset" />
          </mxGeometry>
        </mxCell>
        <mxCell id="vkNyDaB43m4bc4SYDss3-162" value="Topic" style="swimlane;fontStyle=0;childLayout=stackLayout;horizontal=1;startSize=26;fillColor=#647687;horizontalStack=0;resizeParent=1;resizeParentMax=0;resizeLast=0;collapsible=1;marginBottom=0;labelBackgroundColor=none;fontColor=#ffffff;strokeColor=#314354;" parent="1" vertex="1">
          <mxGeometry x="300" y="130" width="140" height="208" as="geometry" />
        </mxCell>
        <mxCell id="vkNyDaB43m4bc4SYDss3-163" value="id" style="text;strokeColor=none;fillColor=none;align=left;verticalAlign=top;spacingLeft=4;spacingRight=4;overflow=hidden;rotatable=0;points=[[0,0.5],[1,0.5]];portConstraint=eastwest;labelBackgroundColor=default;" parent="vkNyDaB43m4bc4SYDss3-162" vertex="1">
          <mxGeometry y="26" width="140" height="26" as="geometry" />
        </mxCell>
        <mxCell id="vkNyDaB43m4bc4SYDss3-164" value="name_topic" style="text;strokeColor=none;fillColor=none;align=left;verticalAlign=top;spacingLeft=4;spacingRight=4;overflow=hidden;rotatable=0;points=[[0,0.5],[1,0.5]];portConstraint=eastwest;labelBackgroundColor=default;" parent="vkNyDaB43m4bc4SYDss3-162" vertex="1">
          <mxGeometry y="52" width="140" height="26" as="geometry" />
        </mxCell>
        <mxCell id="uOX_rvYjbaf5CbR3i-7Y-1" value="level" style="text;strokeColor=none;fillColor=none;align=left;verticalAlign=top;spacingLeft=4;spacingRight=4;overflow=hidden;rotatable=0;points=[[0,0.5],[1,0.5]];portConstraint=eastwest;labelBackgroundColor=default;" vertex="1" parent="vkNyDaB43m4bc4SYDss3-162">
          <mxGeometry y="78" width="140" height="26" as="geometry" />
        </mxCell>
        <mxCell id="vkNyDaB43m4bc4SYDss3-188" value="view" style="text;strokeColor=none;fillColor=none;align=left;verticalAlign=top;spacingLeft=4;spacingRight=4;overflow=hidden;rotatable=0;points=[[0,0.5],[1,0.5]];portConstraint=eastwest;labelBackgroundColor=default;" parent="vkNyDaB43m4bc4SYDss3-162" vertex="1">
          <mxGeometry y="104" width="140" height="26" as="geometry" />
        </mxCell>
        <mxCell id="vkNyDaB43m4bc4SYDss3-189" value="test" style="text;strokeColor=none;fillColor=none;align=left;verticalAlign=top;spacingLeft=4;spacingRight=4;overflow=hidden;rotatable=0;points=[[0,0.5],[1,0.5]];portConstraint=eastwest;labelBackgroundColor=default;" parent="vkNyDaB43m4bc4SYDss3-162" vertex="1">
          <mxGeometry y="130" width="140" height="26" as="geometry" />
        </mxCell>
        <mxCell id="vkNyDaB43m4bc4SYDss3-174" value="created_time" style="text;strokeColor=none;fillColor=none;align=left;verticalAlign=top;spacingLeft=4;spacingRight=4;overflow=hidden;rotatable=0;points=[[0,0.5],[1,0.5]];portConstraint=eastwest;labelBackgroundColor=default;" parent="vkNyDaB43m4bc4SYDss3-162" vertex="1">
          <mxGeometry y="156" width="140" height="26" as="geometry" />
        </mxCell>
        <mxCell id="vkNyDaB43m4bc4SYDss3-173" value="updated_time" style="text;strokeColor=none;fillColor=none;align=left;verticalAlign=top;spacingLeft=4;spacingRight=4;overflow=hidden;rotatable=0;points=[[0,0.5],[1,0.5]];portConstraint=eastwest;labelBackgroundColor=default;" parent="vkNyDaB43m4bc4SYDss3-162" vertex="1">
          <mxGeometry y="182" width="140" height="26" as="geometry" />
        </mxCell>
        <mxCell id="vkNyDaB43m4bc4SYDss3-166" value="Grammar" style="swimlane;fontStyle=0;childLayout=stackLayout;horizontal=1;startSize=26;fillColor=#fad7ac;horizontalStack=0;resizeParent=1;resizeParentMax=0;resizeLast=0;collapsible=1;marginBottom=0;labelBackgroundColor=none;strokeColor=#b46504;" parent="1" vertex="1">
          <mxGeometry x="300" y="638" width="140" height="182" as="geometry" />
        </mxCell>
        <mxCell id="vkNyDaB43m4bc4SYDss3-167" value="id" style="text;strokeColor=none;fillColor=none;align=left;verticalAlign=top;spacingLeft=4;spacingRight=4;overflow=hidden;rotatable=0;points=[[0,0.5],[1,0.5]];portConstraint=eastwest;labelBackgroundColor=default;" parent="vkNyDaB43m4bc4SYDss3-166" vertex="1">
          <mxGeometry y="26" width="140" height="26" as="geometry" />
        </mxCell>
        <mxCell id="vkNyDaB43m4bc4SYDss3-168" value="topic_id" style="text;strokeColor=none;fillColor=none;align=left;verticalAlign=top;spacingLeft=4;spacingRight=4;overflow=hidden;rotatable=0;points=[[0,0.5],[1,0.5]];portConstraint=eastwest;labelBackgroundColor=default;" parent="vkNyDaB43m4bc4SYDss3-166" vertex="1">
          <mxGeometry y="52" width="140" height="26" as="geometry" />
        </mxCell>
        <mxCell id="uOX_rvYjbaf5CbR3i-7Y-16" value="question" style="text;strokeColor=none;fillColor=none;align=left;verticalAlign=top;spacingLeft=4;spacingRight=4;overflow=hidden;rotatable=0;points=[[0,0.5],[1,0.5]];portConstraint=eastwest;labelBackgroundColor=default;" vertex="1" parent="vkNyDaB43m4bc4SYDss3-166">
          <mxGeometry y="78" width="140" height="26" as="geometry" />
        </mxCell>
        <mxCell id="uOX_rvYjbaf5CbR3i-7Y-17" value="answer" style="text;strokeColor=none;fillColor=none;align=left;verticalAlign=top;spacingLeft=4;spacingRight=4;overflow=hidden;rotatable=0;points=[[0,0.5],[1,0.5]];portConstraint=eastwest;labelBackgroundColor=default;" vertex="1" parent="vkNyDaB43m4bc4SYDss3-166">
          <mxGeometry y="104" width="140" height="26" as="geometry" />
        </mxCell>
        <mxCell id="vkNyDaB43m4bc4SYDss3-171" value="created_time" style="text;strokeColor=none;fillColor=none;align=left;verticalAlign=top;spacingLeft=4;spacingRight=4;overflow=hidden;rotatable=0;points=[[0,0.5],[1,0.5]];portConstraint=eastwest;labelBackgroundColor=default;" parent="vkNyDaB43m4bc4SYDss3-166" vertex="1">
          <mxGeometry y="130" width="140" height="26" as="geometry" />
        </mxCell>
        <mxCell id="vkNyDaB43m4bc4SYDss3-169" value="updated_time" style="text;strokeColor=none;fillColor=none;align=left;verticalAlign=top;spacingLeft=4;spacingRight=4;overflow=hidden;rotatable=0;points=[[0,0.5],[1,0.5]];portConstraint=eastwest;labelBackgroundColor=default;" parent="vkNyDaB43m4bc4SYDss3-166" vertex="1">
          <mxGeometry y="156" width="140" height="26" as="geometry" />
        </mxCell>
        <mxCell id="vkNyDaB43m4bc4SYDss3-175" value="QnA" style="swimlane;fontStyle=0;childLayout=stackLayout;horizontal=1;startSize=26;fillColor=#6d8764;horizontalStack=0;resizeParent=1;resizeParentMax=0;resizeLast=0;collapsible=1;marginBottom=0;labelBackgroundColor=none;strokeColor=#3A5431;fontColor=#ffffff;" parent="1" vertex="1">
          <mxGeometry x="960" y="612" width="140" height="156" as="geometry" />
        </mxCell>
        <mxCell id="vkNyDaB43m4bc4SYDss3-176" value="id" style="text;strokeColor=none;fillColor=none;align=left;verticalAlign=top;spacingLeft=4;spacingRight=4;overflow=hidden;rotatable=0;points=[[0,0.5],[1,0.5]];portConstraint=eastwest;labelBackgroundColor=default;" parent="vkNyDaB43m4bc4SYDss3-175" vertex="1">
          <mxGeometry y="26" width="140" height="26" as="geometry" />
        </mxCell>
        <mxCell id="vkNyDaB43m4bc4SYDss3-177" value="email" style="text;strokeColor=none;fillColor=none;align=left;verticalAlign=top;spacingLeft=4;spacingRight=4;overflow=hidden;rotatable=0;points=[[0,0.5],[1,0.5]];portConstraint=eastwest;labelBackgroundColor=default;" parent="vkNyDaB43m4bc4SYDss3-175" vertex="1">
          <mxGeometry y="52" width="140" height="26" as="geometry" />
        </mxCell>
        <mxCell id="vkNyDaB43m4bc4SYDss3-180" value="token" style="text;strokeColor=none;fillColor=none;align=left;verticalAlign=top;spacingLeft=4;spacingRight=4;overflow=hidden;rotatable=0;points=[[0,0.5],[1,0.5]];portConstraint=eastwest;labelBackgroundColor=default;" parent="vkNyDaB43m4bc4SYDss3-175" vertex="1">
          <mxGeometry y="78" width="140" height="26" as="geometry" />
        </mxCell>
        <mxCell id="vkNyDaB43m4bc4SYDss3-181" value="created_time" style="text;strokeColor=none;fillColor=none;align=left;verticalAlign=top;spacingLeft=4;spacingRight=4;overflow=hidden;rotatable=0;points=[[0,0.5],[1,0.5]];portConstraint=eastwest;labelBackgroundColor=default;" parent="vkNyDaB43m4bc4SYDss3-175" vertex="1">
          <mxGeometry y="104" width="140" height="26" as="geometry" />
        </mxCell>
        <mxCell id="vkNyDaB43m4bc4SYDss3-178" value="updated_time" style="text;strokeColor=none;fillColor=none;align=left;verticalAlign=top;spacingLeft=4;spacingRight=4;overflow=hidden;rotatable=0;points=[[0,0.5],[1,0.5]];portConstraint=eastwest;labelBackgroundColor=default;" parent="vkNyDaB43m4bc4SYDss3-175" vertex="1">
          <mxGeometry y="130" width="140" height="26" as="geometry" />
        </mxCell>
        <mxCell id="vkNyDaB43m4bc4SYDss3-195" value="Vocabulary_user" style="swimlane;fontStyle=0;childLayout=stackLayout;horizontal=1;startSize=26;fillColor=#647687;horizontalStack=0;resizeParent=1;resizeParentMax=0;resizeLast=0;collapsible=1;marginBottom=0;labelBackgroundColor=none;fontColor=#ffffff;strokeColor=#314354;" parent="1" vertex="1">
          <mxGeometry x="520" y="130" width="140" height="156" as="geometry" />
        </mxCell>
        <mxCell id="vkNyDaB43m4bc4SYDss3-196" value="id" style="text;strokeColor=none;fillColor=none;align=left;verticalAlign=top;spacingLeft=4;spacingRight=4;overflow=hidden;rotatable=0;points=[[0,0.5],[1,0.5]];portConstraint=eastwest;labelBackgroundColor=none;" parent="vkNyDaB43m4bc4SYDss3-195" vertex="1">
          <mxGeometry y="26" width="140" height="26" as="geometry" />
        </mxCell>
        <mxCell id="vkNyDaB43m4bc4SYDss3-197" value="user_id" style="text;strokeColor=none;fillColor=none;align=left;verticalAlign=top;spacingLeft=4;spacingRight=4;overflow=hidden;rotatable=0;points=[[0,0.5],[1,0.5]];portConstraint=eastwest;labelBackgroundColor=none;" parent="vkNyDaB43m4bc4SYDss3-195" vertex="1">
          <mxGeometry y="52" width="140" height="26" as="geometry" />
        </mxCell>
        <mxCell id="vkNyDaB43m4bc4SYDss3-200" value="topic_id" style="text;strokeColor=none;fillColor=none;align=left;verticalAlign=top;spacingLeft=4;spacingRight=4;overflow=hidden;rotatable=0;points=[[0,0.5],[1,0.5]];portConstraint=eastwest;labelBackgroundColor=none;" parent="vkNyDaB43m4bc4SYDss3-195" vertex="1">
          <mxGeometry y="78" width="140" height="26" as="geometry" />
        </mxCell>
        <mxCell id="vkNyDaB43m4bc4SYDss3-203" value="created_time" style="text;strokeColor=none;fillColor=none;align=left;verticalAlign=top;spacingLeft=4;spacingRight=4;overflow=hidden;rotatable=0;points=[[0,0.5],[1,0.5]];portConstraint=eastwest;labelBackgroundColor=none;" parent="vkNyDaB43m4bc4SYDss3-195" vertex="1">
          <mxGeometry y="104" width="140" height="26" as="geometry" />
        </mxCell>
        <mxCell id="vkNyDaB43m4bc4SYDss3-202" value="updated_time" style="text;strokeColor=none;fillColor=none;align=left;verticalAlign=top;spacingLeft=4;spacingRight=4;overflow=hidden;rotatable=0;points=[[0,0.5],[1,0.5]];portConstraint=eastwest;labelBackgroundColor=none;" parent="vkNyDaB43m4bc4SYDss3-195" vertex="1">
          <mxGeometry y="130" width="140" height="26" as="geometry" />
        </mxCell>
        <mxCell id="vkNyDaB43m4bc4SYDss3-204" value="" style="endArrow=open;html=1;endSize=12;startArrow=diamondThin;startSize=14;startFill=0;edgeStyle=orthogonalEdgeStyle;rounded=0;exitX=0.25;exitY=0;exitDx=0;exitDy=0;entryX=0.993;entryY=0.103;entryDx=0;entryDy=0;entryPerimeter=0;" parent="1" source="vkNyDaB43m4bc4SYDss3-11" target="vkNyDaB43m4bc4SYDss3-195" edge="1">
          <mxGeometry relative="1" as="geometry">
            <mxPoint x="650" y="530" as="sourcePoint" />
            <mxPoint x="960" y="560" as="targetPoint" />
          </mxGeometry>
        </mxCell>
        <mxCell id="vkNyDaB43m4bc4SYDss3-205" value="0..n" style="edgeLabel;resizable=0;html=1;align=left;verticalAlign=top;labelBackgroundColor=none;" parent="vkNyDaB43m4bc4SYDss3-204" connectable="0" vertex="1">
          <mxGeometry x="-1" relative="1" as="geometry">
            <mxPoint x="-26" y="-20" as="offset" />
          </mxGeometry>
        </mxCell>
        <mxCell id="vkNyDaB43m4bc4SYDss3-206" value="1" style="edgeLabel;resizable=0;html=1;align=right;verticalAlign=top;labelBackgroundColor=none;" parent="vkNyDaB43m4bc4SYDss3-204" connectable="0" vertex="1">
          <mxGeometry x="1" relative="1" as="geometry">
            <mxPoint x="10" y="-3" as="offset" />
          </mxGeometry>
        </mxCell>
        <mxCell id="vkNyDaB43m4bc4SYDss3-209" value="" style="endArrow=open;html=1;endSize=12;startArrow=diamondThin;startSize=14;startFill=0;edgeStyle=orthogonalEdgeStyle;rounded=0;entryX=-0.003;entryY=0.104;entryDx=0;entryDy=0;entryPerimeter=0;exitX=1.01;exitY=0.078;exitDx=0;exitDy=0;exitPerimeter=0;" parent="1" source="vkNyDaB43m4bc4SYDss3-162" target="vkNyDaB43m4bc4SYDss3-195" edge="1">
          <mxGeometry relative="1" as="geometry">
            <mxPoint x="440" y="377" as="sourcePoint" />
            <mxPoint x="510" y="550" as="targetPoint" />
            <Array as="points" />
          </mxGeometry>
        </mxCell>
        <mxCell id="vkNyDaB43m4bc4SYDss3-210" value="0..n" style="edgeLabel;resizable=0;html=1;align=left;verticalAlign=top;labelBackgroundColor=none;" parent="vkNyDaB43m4bc4SYDss3-209" connectable="0" vertex="1">
          <mxGeometry x="-1" relative="1" as="geometry">
            <mxPoint x="6" y="-3" as="offset" />
          </mxGeometry>
        </mxCell>
        <mxCell id="vkNyDaB43m4bc4SYDss3-211" value="1" style="edgeLabel;resizable=0;html=1;align=right;verticalAlign=top;labelBackgroundColor=none;" parent="vkNyDaB43m4bc4SYDss3-209" connectable="0" vertex="1">
          <mxGeometry x="1" relative="1" as="geometry">
            <mxPoint x="-1" y="-5" as="offset" />
          </mxGeometry>
        </mxCell>
        <mxCell id="vkNyDaB43m4bc4SYDss3-213" value="Vocabulary" style="swimlane;fontStyle=0;childLayout=stackLayout;horizontal=1;startSize=26;fillColor=#dae8fc;horizontalStack=0;resizeParent=1;resizeParentMax=0;resizeLast=0;collapsible=1;marginBottom=0;labelBackgroundColor=none;strokeColor=#6c8ebf;" parent="1" vertex="1">
          <mxGeometry x="300" y="399" width="140" height="182" as="geometry" />
        </mxCell>
        <mxCell id="vkNyDaB43m4bc4SYDss3-214" value="id" style="text;strokeColor=none;fillColor=none;align=left;verticalAlign=top;spacingLeft=4;spacingRight=4;overflow=hidden;rotatable=0;points=[[0,0.5],[1,0.5]];portConstraint=eastwest;labelBackgroundColor=none;" parent="vkNyDaB43m4bc4SYDss3-213" vertex="1">
          <mxGeometry y="26" width="140" height="26" as="geometry" />
        </mxCell>
        <mxCell id="vkNyDaB43m4bc4SYDss3-215" value="topic_id" style="text;strokeColor=none;fillColor=none;align=left;verticalAlign=top;spacingLeft=4;spacingRight=4;overflow=hidden;rotatable=0;points=[[0,0.5],[1,0.5]];portConstraint=eastwest;labelBackgroundColor=none;" parent="vkNyDaB43m4bc4SYDss3-213" vertex="1">
          <mxGeometry y="52" width="140" height="26" as="geometry" />
        </mxCell>
        <mxCell id="vkNyDaB43m4bc4SYDss3-218" value="word" style="text;strokeColor=none;fillColor=none;align=left;verticalAlign=top;spacingLeft=4;spacingRight=4;overflow=hidden;rotatable=0;points=[[0,0.5],[1,0.5]];portConstraint=eastwest;labelBackgroundColor=none;" parent="vkNyDaB43m4bc4SYDss3-213" vertex="1">
          <mxGeometry y="78" width="140" height="26" as="geometry" />
        </mxCell>
        <mxCell id="uOX_rvYjbaf5CbR3i-7Y-18" value="mean" style="text;strokeColor=none;fillColor=none;align=left;verticalAlign=top;spacingLeft=4;spacingRight=4;overflow=hidden;rotatable=0;points=[[0,0.5],[1,0.5]];portConstraint=eastwest;labelBackgroundColor=none;" vertex="1" parent="vkNyDaB43m4bc4SYDss3-213">
          <mxGeometry y="104" width="140" height="26" as="geometry" />
        </mxCell>
        <mxCell id="uOX_rvYjbaf5CbR3i-7Y-19" value="created_time" style="text;strokeColor=none;fillColor=none;align=left;verticalAlign=top;spacingLeft=4;spacingRight=4;overflow=hidden;rotatable=0;points=[[0,0.5],[1,0.5]];portConstraint=eastwest;labelBackgroundColor=none;" vertex="1" parent="vkNyDaB43m4bc4SYDss3-213">
          <mxGeometry y="130" width="140" height="26" as="geometry" />
        </mxCell>
        <mxCell id="vkNyDaB43m4bc4SYDss3-220" value="updated_time" style="text;strokeColor=none;fillColor=none;align=left;verticalAlign=top;spacingLeft=4;spacingRight=4;overflow=hidden;rotatable=0;points=[[0,0.5],[1,0.5]];portConstraint=eastwest;labelBackgroundColor=none;" parent="vkNyDaB43m4bc4SYDss3-213" vertex="1">
          <mxGeometry y="156" width="140" height="26" as="geometry" />
        </mxCell>
        <mxCell id="uOX_rvYjbaf5CbR3i-7Y-2" value="Grammar_user" style="swimlane;fontStyle=0;childLayout=stackLayout;horizontal=1;startSize=26;fillColor=#a0522d;horizontalStack=0;resizeParent=1;resizeParentMax=0;resizeLast=0;collapsible=1;marginBottom=0;labelBackgroundColor=none;fontColor=#ffffff;strokeColor=#6D1F00;" vertex="1" parent="1">
          <mxGeometry x="520" y="360" width="140" height="156" as="geometry" />
        </mxCell>
        <mxCell id="uOX_rvYjbaf5CbR3i-7Y-3" value="id" style="text;strokeColor=none;fillColor=none;align=left;verticalAlign=top;spacingLeft=4;spacingRight=4;overflow=hidden;rotatable=0;points=[[0,0.5],[1,0.5]];portConstraint=eastwest;labelBackgroundColor=none;" vertex="1" parent="uOX_rvYjbaf5CbR3i-7Y-2">
          <mxGeometry y="26" width="140" height="26" as="geometry" />
        </mxCell>
        <mxCell id="uOX_rvYjbaf5CbR3i-7Y-4" value="user_id" style="text;strokeColor=none;fillColor=none;align=left;verticalAlign=top;spacingLeft=4;spacingRight=4;overflow=hidden;rotatable=0;points=[[0,0.5],[1,0.5]];portConstraint=eastwest;labelBackgroundColor=none;" vertex="1" parent="uOX_rvYjbaf5CbR3i-7Y-2">
          <mxGeometry y="52" width="140" height="26" as="geometry" />
        </mxCell>
        <mxCell id="uOX_rvYjbaf5CbR3i-7Y-5" value="topic_id" style="text;strokeColor=none;fillColor=none;align=left;verticalAlign=top;spacingLeft=4;spacingRight=4;overflow=hidden;rotatable=0;points=[[0,0.5],[1,0.5]];portConstraint=eastwest;labelBackgroundColor=none;" vertex="1" parent="uOX_rvYjbaf5CbR3i-7Y-2">
          <mxGeometry y="78" width="140" height="26" as="geometry" />
        </mxCell>
        <mxCell id="uOX_rvYjbaf5CbR3i-7Y-6" value="created_time" style="text;strokeColor=none;fillColor=none;align=left;verticalAlign=top;spacingLeft=4;spacingRight=4;overflow=hidden;rotatable=0;points=[[0,0.5],[1,0.5]];portConstraint=eastwest;labelBackgroundColor=none;" vertex="1" parent="uOX_rvYjbaf5CbR3i-7Y-2">
          <mxGeometry y="104" width="140" height="26" as="geometry" />
        </mxCell>
        <mxCell id="uOX_rvYjbaf5CbR3i-7Y-7" value="updated_time" style="text;strokeColor=none;fillColor=none;align=left;verticalAlign=top;spacingLeft=4;spacingRight=4;overflow=hidden;rotatable=0;points=[[0,0.5],[1,0.5]];portConstraint=eastwest;labelBackgroundColor=none;" vertex="1" parent="uOX_rvYjbaf5CbR3i-7Y-2">
          <mxGeometry y="130" width="140" height="26" as="geometry" />
        </mxCell>
        <mxCell id="uOX_rvYjbaf5CbR3i-7Y-8" value="Topic" style="swimlane;fontStyle=0;childLayout=stackLayout;horizontal=1;startSize=26;fillColor=#a0522d;horizontalStack=0;resizeParent=1;resizeParentMax=0;resizeLast=0;collapsible=1;marginBottom=0;labelBackgroundColor=none;fontColor=#ffffff;strokeColor=#6D1F00;" vertex="1" parent="1">
          <mxGeometry x="520" y="560" width="140" height="260" as="geometry" />
        </mxCell>
        <mxCell id="uOX_rvYjbaf5CbR3i-7Y-9" value="id" style="text;strokeColor=none;fillColor=none;align=left;verticalAlign=top;spacingLeft=4;spacingRight=4;overflow=hidden;rotatable=0;points=[[0,0.5],[1,0.5]];portConstraint=eastwest;labelBackgroundColor=default;" vertex="1" parent="uOX_rvYjbaf5CbR3i-7Y-8">
          <mxGeometry y="26" width="140" height="26" as="geometry" />
        </mxCell>
        <mxCell id="uOX_rvYjbaf5CbR3i-7Y-10" value="name_topic" style="text;strokeColor=none;fillColor=none;align=left;verticalAlign=top;spacingLeft=4;spacingRight=4;overflow=hidden;rotatable=0;points=[[0,0.5],[1,0.5]];portConstraint=eastwest;labelBackgroundColor=default;" vertex="1" parent="uOX_rvYjbaf5CbR3i-7Y-8">
          <mxGeometry y="52" width="140" height="26" as="geometry" />
        </mxCell>
        <mxCell id="uOX_rvYjbaf5CbR3i-7Y-11" value="level" style="text;strokeColor=none;fillColor=none;align=left;verticalAlign=top;spacingLeft=4;spacingRight=4;overflow=hidden;rotatable=0;points=[[0,0.5],[1,0.5]];portConstraint=eastwest;labelBackgroundColor=default;" vertex="1" parent="uOX_rvYjbaf5CbR3i-7Y-8">
          <mxGeometry y="78" width="140" height="26" as="geometry" />
        </mxCell>
        <mxCell id="uOX_rvYjbaf5CbR3i-7Y-12" value="view" style="text;strokeColor=none;fillColor=none;align=left;verticalAlign=top;spacingLeft=4;spacingRight=4;overflow=hidden;rotatable=0;points=[[0,0.5],[1,0.5]];portConstraint=eastwest;labelBackgroundColor=default;" vertex="1" parent="uOX_rvYjbaf5CbR3i-7Y-8">
          <mxGeometry y="104" width="140" height="26" as="geometry" />
        </mxCell>
        <mxCell id="uOX_rvYjbaf5CbR3i-7Y-13" value="test" style="text;strokeColor=none;fillColor=none;align=left;verticalAlign=top;spacingLeft=4;spacingRight=4;overflow=hidden;rotatable=0;points=[[0,0.5],[1,0.5]];portConstraint=eastwest;labelBackgroundColor=default;" vertex="1" parent="uOX_rvYjbaf5CbR3i-7Y-8">
          <mxGeometry y="130" width="140" height="26" as="geometry" />
        </mxCell>
        <mxCell id="vkNyDaB43m4bc4SYDss3-170" value="link_practice" style="text;strokeColor=none;fillColor=none;align=left;verticalAlign=top;spacingLeft=4;spacingRight=4;overflow=hidden;rotatable=0;points=[[0,0.5],[1,0.5]];portConstraint=eastwest;labelBackgroundColor=default;" parent="uOX_rvYjbaf5CbR3i-7Y-8" vertex="1">
          <mxGeometry y="156" width="140" height="26" as="geometry" />
        </mxCell>
        <mxCell id="vkNyDaB43m4bc4SYDss3-172" value="link_answer" style="text;strokeColor=none;fillColor=none;align=left;verticalAlign=top;spacingLeft=4;spacingRight=4;overflow=hidden;rotatable=0;points=[[0,0.5],[1,0.5]];portConstraint=eastwest;labelBackgroundColor=default;" parent="uOX_rvYjbaf5CbR3i-7Y-8" vertex="1">
          <mxGeometry y="182" width="140" height="26" as="geometry" />
        </mxCell>
        <mxCell id="uOX_rvYjbaf5CbR3i-7Y-14" value="created_time" style="text;strokeColor=none;fillColor=none;align=left;verticalAlign=top;spacingLeft=4;spacingRight=4;overflow=hidden;rotatable=0;points=[[0,0.5],[1,0.5]];portConstraint=eastwest;labelBackgroundColor=default;" vertex="1" parent="uOX_rvYjbaf5CbR3i-7Y-8">
          <mxGeometry y="208" width="140" height="26" as="geometry" />
        </mxCell>
        <mxCell id="uOX_rvYjbaf5CbR3i-7Y-15" value="updated_time" style="text;strokeColor=none;fillColor=none;align=left;verticalAlign=top;spacingLeft=4;spacingRight=4;overflow=hidden;rotatable=0;points=[[0,0.5],[1,0.5]];portConstraint=eastwest;labelBackgroundColor=default;" vertex="1" parent="uOX_rvYjbaf5CbR3i-7Y-8">
          <mxGeometry y="234" width="140" height="26" as="geometry" />
        </mxCell>
        <mxCell id="uOX_rvYjbaf5CbR3i-7Y-26" value="" style="endArrow=open;html=1;endSize=12;startArrow=diamondThin;startSize=14;startFill=0;edgeStyle=orthogonalEdgeStyle;rounded=0;entryX=0.497;entryY=1.029;entryDx=0;entryDy=0;entryPerimeter=0;exitX=0.5;exitY=0;exitDx=0;exitDy=0;" edge="1" parent="1" source="vkNyDaB43m4bc4SYDss3-43" target="vkNyDaB43m4bc4SYDss3-36">
          <mxGeometry relative="1" as="geometry">
            <mxPoint x="1180" y="140" as="sourcePoint" />
            <mxPoint x="1230" y="300" as="targetPoint" />
          </mxGeometry>
        </mxCell>
        <mxCell id="uOX_rvYjbaf5CbR3i-7Y-27" value="0..n" style="edgeLabel;resizable=0;html=1;align=left;verticalAlign=top;labelBackgroundColor=none;" connectable="0" vertex="1" parent="uOX_rvYjbaf5CbR3i-7Y-26">
          <mxGeometry x="-1" relative="1" as="geometry">
            <mxPoint x="4" y="-22" as="offset" />
          </mxGeometry>
        </mxCell>
        <mxCell id="uOX_rvYjbaf5CbR3i-7Y-28" value="1" style="edgeLabel;resizable=0;html=1;align=right;verticalAlign=top;labelBackgroundColor=none;" connectable="0" vertex="1" parent="uOX_rvYjbaf5CbR3i-7Y-26">
          <mxGeometry x="1" relative="1" as="geometry">
            <mxPoint x="12" y="-7" as="offset" />
          </mxGeometry>
        </mxCell>
        <mxCell id="uOX_rvYjbaf5CbR3i-7Y-31" value="" style="endArrow=open;html=1;endSize=12;startArrow=diamondThin;startSize=14;startFill=0;edgeStyle=orthogonalEdgeStyle;rounded=0;exitX=0.5;exitY=0;exitDx=0;exitDy=0;entryX=0.495;entryY=1.086;entryDx=0;entryDy=0;entryPerimeter=0;" edge="1" parent="1" source="vkNyDaB43m4bc4SYDss3-213" target="vkNyDaB43m4bc4SYDss3-173">
          <mxGeometry relative="1" as="geometry">
            <mxPoint x="430" y="400" as="sourcePoint" />
            <mxPoint x="590" y="400" as="targetPoint" />
            <Array as="points">
              <mxPoint x="370" y="370" />
              <mxPoint x="369" y="370" />
            </Array>
          </mxGeometry>
        </mxCell>
        <mxCell id="uOX_rvYjbaf5CbR3i-7Y-32" value="0..n" style="edgeLabel;resizable=0;html=1;align=left;verticalAlign=top;labelBackgroundColor=none;" connectable="0" vertex="1" parent="uOX_rvYjbaf5CbR3i-7Y-31">
          <mxGeometry x="-1" relative="1" as="geometry">
            <mxPoint x="5" y="-21" as="offset" />
          </mxGeometry>
        </mxCell>
        <mxCell id="uOX_rvYjbaf5CbR3i-7Y-33" value="1" style="edgeLabel;resizable=0;html=1;align=right;verticalAlign=top;labelBackgroundColor=none;" connectable="0" vertex="1" parent="uOX_rvYjbaf5CbR3i-7Y-31">
          <mxGeometry x="1" relative="1" as="geometry">
            <mxPoint x="12" y="-6" as="offset" />
          </mxGeometry>
        </mxCell>
        <mxCell id="uOX_rvYjbaf5CbR3i-7Y-34" value="" style="endArrow=open;html=1;endSize=12;startArrow=diamondThin;startSize=14;startFill=0;edgeStyle=orthogonalEdgeStyle;rounded=0;exitX=-0.007;exitY=0.073;exitDx=0;exitDy=0;exitPerimeter=0;entryX=1;entryY=0.122;entryDx=0;entryDy=0;entryPerimeter=0;" edge="1" parent="1" source="vkNyDaB43m4bc4SYDss3-11" target="uOX_rvYjbaf5CbR3i-7Y-2">
          <mxGeometry relative="1" as="geometry">
            <mxPoint x="640" y="510" as="sourcePoint" />
            <mxPoint x="800" y="510" as="targetPoint" />
          </mxGeometry>
        </mxCell>
        <mxCell id="uOX_rvYjbaf5CbR3i-7Y-35" value="0..n" style="edgeLabel;resizable=0;html=1;align=left;verticalAlign=top;labelBackgroundColor=none;" connectable="0" vertex="1" parent="uOX_rvYjbaf5CbR3i-7Y-34">
          <mxGeometry x="-1" relative="1" as="geometry">
            <mxPoint x="-22" y="-23" as="offset" />
          </mxGeometry>
        </mxCell>
        <mxCell id="uOX_rvYjbaf5CbR3i-7Y-36" value="1" style="edgeLabel;resizable=0;html=1;align=right;verticalAlign=top;labelBackgroundColor=none;" connectable="0" vertex="1" parent="uOX_rvYjbaf5CbR3i-7Y-34">
          <mxGeometry x="1" relative="1" as="geometry">
            <mxPoint x="8" y="-22" as="offset" />
          </mxGeometry>
        </mxCell>
        <mxCell id="uOX_rvYjbaf5CbR3i-7Y-37" value="" style="endArrow=open;html=1;endSize=12;startArrow=diamondThin;startSize=14;startFill=0;edgeStyle=orthogonalEdgeStyle;rounded=0;exitX=0.5;exitY=0;exitDx=0;exitDy=0;entryX=0.496;entryY=1.019;entryDx=0;entryDy=0;entryPerimeter=0;" edge="1" parent="1" source="uOX_rvYjbaf5CbR3i-7Y-8" target="uOX_rvYjbaf5CbR3i-7Y-7">
          <mxGeometry relative="1" as="geometry">
            <mxPoint x="640" y="610" as="sourcePoint" />
            <mxPoint x="800" y="610" as="targetPoint" />
          </mxGeometry>
        </mxCell>
        <mxCell id="uOX_rvYjbaf5CbR3i-7Y-38" value="0..n" style="edgeLabel;resizable=0;html=1;align=left;verticalAlign=top;labelBackgroundColor=none;" connectable="0" vertex="1" parent="uOX_rvYjbaf5CbR3i-7Y-37">
          <mxGeometry x="-1" relative="1" as="geometry">
            <mxPoint x="4" y="-21" as="offset" />
          </mxGeometry>
        </mxCell>
        <mxCell id="uOX_rvYjbaf5CbR3i-7Y-39" value="1" style="edgeLabel;resizable=0;html=1;align=right;verticalAlign=top;labelBackgroundColor=none;" connectable="0" vertex="1" parent="uOX_rvYjbaf5CbR3i-7Y-37">
          <mxGeometry x="1" relative="1" as="geometry">
            <mxPoint x="11" y="-7" as="offset" />
          </mxGeometry>
        </mxCell>
        <mxCell id="uOX_rvYjbaf5CbR3i-7Y-40" value="" style="endArrow=open;html=1;endSize=12;startArrow=diamondThin;startSize=14;startFill=0;edgeStyle=orthogonalEdgeStyle;rounded=0;exitX=1;exitY=0.088;exitDx=0;exitDy=0;exitPerimeter=0;entryX=-0.007;entryY=0.073;entryDx=0;entryDy=0;entryPerimeter=0;" edge="1" parent="1" source="vkNyDaB43m4bc4SYDss3-166" target="uOX_rvYjbaf5CbR3i-7Y-8">
          <mxGeometry relative="1" as="geometry">
            <mxPoint x="720" y="500" as="sourcePoint" />
            <mxPoint x="880" y="500" as="targetPoint" />
          </mxGeometry>
        </mxCell>
        <mxCell id="uOX_rvYjbaf5CbR3i-7Y-41" value="0..n" style="edgeLabel;resizable=0;html=1;align=left;verticalAlign=top;labelBackgroundColor=none;" connectable="0" vertex="1" parent="uOX_rvYjbaf5CbR3i-7Y-40">
          <mxGeometry x="-1" relative="1" as="geometry" />
        </mxCell>
        <mxCell id="uOX_rvYjbaf5CbR3i-7Y-42" value="1" style="edgeLabel;resizable=0;html=1;align=right;verticalAlign=top;labelBackgroundColor=none;" connectable="0" vertex="1" parent="uOX_rvYjbaf5CbR3i-7Y-40">
          <mxGeometry x="1" relative="1" as="geometry" />
        </mxCell>
      </root>
    </mxGraphModel>
  </diagram>
</mxfile>
